<svg width="28" height="28" viewBox="0 0 28 28" fill="none" xmlns="http://www.w3.org/2000/svg">
<path d="M14.7105 2.625L3.02181 5.84981C3.02181 5.84981 0.875 5.78944 0.875 8.06969C0.875 9.01075 1.29237 9.71206 1.29237 9.71206L10.1973 24.6054C11.0486 25.9617 12.8568 25.1125 12.8568 25.1125L26.5116 18.4603L26.0006 17.9419C25.8803 17.3193 25.8103 16.1665 26.6556 15.3081C26.6744 15.2889 26.6779 15.2626 26.6879 15.2386L27.125 15.0631L14.7105 2.625ZM8.54219 11.3339L6.43519 8.01937L15.0732 5.46525L17.4632 8.06706L8.54219 11.3339ZM25.5553 16.6867C25.5268 16.8879 25.5124 17.0839 25.5154 17.2677L16.5515 21.5224L25.5474 17.7047C25.5561 17.7743 25.564 17.8443 25.5749 17.9073L14.084 23.4574L25.6655 18.3212L25.6725 18.3483L12.8568 24.479C12.8507 24.4829 12.2657 24.794 11.6795 24.794C11.1002 24.794 10.7393 24.4965 10.5748 23.8849C10.1517 22.3134 12.5554 21.4226 12.5917 21.4095L25.8843 15.6586C25.7889 15.8336 25.7228 16.0116 25.6677 16.1893L17.2296 20.1613L25.5553 16.6867Z" fill="white"/>
</svg>
