<svg width="16" height="16" viewBox="0 0 16 16" fill="none" xmlns="http://www.w3.org/2000/svg">
<g clip-path="url(#clip0_59_1118)">
<path d="M15 11H10.8281L9.41406 12.4141C9.0375 12.7906 8.53438 13 8 13C7.46562 13 6.96375 12.792 6.58594 12.4141L5.17188 11H1C0.447812 11 0 11.4478 0 12V15C0 15.5522 0.447812 16 1 16H15C15.5522 16 16 15.5522 16 15V12C16 11.4469 15.5531 11 15 11ZM13.5 14.25C13.0875 14.25 12.75 13.9125 12.75 13.5C12.75 13.0875 13.0875 12.75 13.5 12.75C13.9125 12.75 14.25 13.0875 14.25 13.5C14.25 13.9125 13.9125 14.25 13.5 14.25Z" fill="white"/>
<path d="M7.29381 11.7063C7.48756 11.9031 7.74381 12 8.00006 12C8.25631 12 8.51193 11.9023 8.70693 11.707L12.7069 7.70703C13.0972 7.31641 13.0972 6.68359 12.7069 6.29297C12.3163 5.90234 11.6832 5.90234 11.2929 6.29297L9.00006 8.5875V1C9.00006 0.447812 8.55225 0 8.00006 0C7.44693 0 7.00006 0.447812 7.00006 1V8.5875L4.70631 6.29375C4.316 5.90312 3.68287 5.90312 3.29225 6.29375C2.90193 6.68437 2.90193 7.31719 3.29225 7.70781L7.29381 11.7063Z" fill="#52F543"/>
</g>
<defs>
<clipPath id="clip0_59_1118">
<rect width="16" height="16" fill="white"/>
</clipPath>
</defs>
</svg>
