<svg width="10" height="10" viewBox="0 0 10 10" fill="none" xmlns="http://www.w3.org/2000/svg">
<path d="M2.02961 8.39658C1.97802 8.39649 1.92701 8.38567 1.87982 8.3648C1.83263 8.34392 1.79031 8.31346 1.75553 8.27535C1.72013 8.23756 1.69311 8.19271 1.67626 8.14374C1.6594 8.09478 1.65309 8.0428 1.65773 7.99123L1.74884 6.98937L5.95784 2.78185L7.2732 4.09684L3.06531 8.30398L2.06345 8.39509C2.0522 8.39613 2.04091 8.39663 2.02961 8.39658ZM7.53575 3.83392L6.22076 2.51893L7.00953 1.73016C7.04407 1.69559 7.08508 1.66816 7.13023 1.64944C7.17538 1.63073 7.22377 1.62109 7.27264 1.62109C7.32151 1.62109 7.3699 1.63073 7.41505 1.64944C7.4602 1.66816 7.50121 1.69559 7.53575 1.73016L8.32452 2.51893C8.3591 2.55347 8.38653 2.59448 8.40524 2.63963C8.42395 2.68478 8.43359 2.73317 8.43359 2.78204C8.43359 2.83091 8.42395 2.8793 8.40524 2.92445C8.38653 2.9696 8.3591 3.01061 8.32452 3.04515L7.53612 3.83355L7.53575 3.83392Z" fill="white"/>
</svg>
