<svg width="41" height="38" viewBox="0 0 41 38" fill="none" xmlns="http://www.w3.org/2000/svg">
<g clip-path="url(#clip0_109_4075)">
<path d="M28.9289 20.6704L22.7821 16.7808L21.3267 19.0808C20.295 20.7113 18.1493 21.2113 16.5439 20.1954C14.9384 19.1795 14.4717 17.0264 15.5035 15.3959L18.6638 10.4016L15.0257 10.3426C13.9463 10.3211 12.926 10.8775 12.3438 11.7975L11.1145 13.7402L6.67867 13.5905C5.83124 13.5604 5.10752 14.2298 5.0698 15.0859L4.70283 22.8255C4.66106 23.6791 5.31852 24.3942 6.16595 24.4243L11.8989 24.6183L17.4229 28.1138C18.8504 29.0172 20.7569 28.5728 21.6744 27.123L22.3214 27.5324C23.0372 27.9854 23.9871 27.764 24.4471 27.037L26.1104 24.4085L26.4339 24.6132C26.9718 24.9535 27.6826 24.7879 28.0282 24.2416L29.2757 22.2702C29.6214 21.724 29.4668 21.0107 28.9289 20.6704ZM35.8738 22.9139L36.2408 15.1742C36.2825 14.3207 35.6251 13.6055 34.7776 13.5754L29.0447 13.3815L24.9118 10.7662C24.4265 10.4591 23.865 10.2994 23.2888 10.2971L21.3909 10.2983C20.86 10.2959 20.3659 10.5757 20.08 11.0274L16.7975 16.2147C16.2232 17.1224 16.4818 18.3156 17.3755 18.8812C18.2692 19.4467 19.4583 19.1696 20.0327 18.2619L22.3197 14.6476L29.7606 19.3561C31.0101 20.1468 31.3728 21.82 30.5698 23.0891L29.8291 24.2596L34.2649 24.4093C35.1149 24.4353 35.832 23.7674 35.8738 22.9139Z" fill="white"/>
</g>
<defs>
<clipPath id="clip0_109_4075">
<rect width="30.6276" height="24.8849" fill="white" transform="translate(14.1844 0.296875) rotate(32.3251)"/>
</clipPath>
</defs>
</svg>
