<svg width="24" height="22" viewBox="0 0 24 22" fill="none" xmlns="http://www.w3.org/2000/svg">
<path d="M2.12792 3.43891C2.12759 3.1429 2.22264 2.85465 2.39897 2.61689C2.57531 2.37912 2.82355 2.2045 3.10692 2.11889C3.39028 2.03328 3.69369 2.04123 3.97218 2.14158C4.25067 2.24193 4.48941 2.42933 4.65304 2.67601C4.8061 2.90021 5.0414 3.055 5.30788 3.10677C5.57435 3.15854 5.85049 3.10313 6.07636 2.95255C6.30223 2.80197 6.45959 2.56838 6.51429 2.30249C6.56899 2.0366 6.51662 1.75987 6.36853 1.53236C6.0355 1.03377 5.5779 0.630908 5.04113 0.363734C4.50436 0.0965605 3.90707 -0.0256425 3.3085 0.00924596C2.70993 0.0441344 2.13089 0.234902 1.62879 0.562627C1.1267 0.890352 0.719005 1.34365 0.446151 1.87755C0.173298 2.41145 0.0447641 3.00742 0.0732999 3.60632C0.101836 4.20523 0.286449 4.78627 0.608829 5.29181C0.931208 5.79735 1.38015 6.20983 1.91113 6.48833C2.44211 6.76684 3.03667 6.90169 3.63585 6.87951H18.3123C18.5858 6.87951 18.848 6.77089 19.0413 6.57755C19.2347 6.38421 19.3433 6.12199 19.3433 5.84857C19.3433 5.57514 19.2347 5.31292 19.0413 5.11958C18.848 4.92624 18.5858 4.81762 18.3123 4.81762H3.63585L3.56987 4.819C3.54835 4.81788 3.52681 4.81742 3.50526 4.81762C3.32427 4.81762 3.14506 4.78195 2.97786 4.71265C2.81066 4.64334 2.65877 4.54177 2.53085 4.41373C2.40293 4.28568 2.30151 4.13368 2.23237 3.96642C2.16324 3.79915 2.12774 3.6199 2.12792 3.43891ZM10.7164 1.38115C10.4429 1.38115 10.1807 1.48977 9.98737 1.68311C9.79403 1.87645 9.68541 2.13867 9.68541 2.41209C9.68541 2.68552 9.79403 2.94774 9.98737 3.14108C10.1807 3.33442 10.4429 3.44303 10.7164 3.44303H21.0258C21.2992 3.44303 21.5614 3.33442 21.7548 3.14108C21.9481 2.94774 22.0567 2.68552 22.0567 2.41209C22.0567 2.13867 21.9481 1.87645 21.7548 1.68311C21.5614 1.48977 21.2992 1.38115 21.0258 1.38115H10.7164ZM5.22075 8.2541C4.94733 8.2541 4.6851 8.36271 4.49176 8.55605C4.29842 8.74939 4.18981 9.01161 4.18981 9.28504C4.18981 9.55846 4.29842 9.82068 4.49176 10.014C4.6851 10.2074 4.94733 10.316 5.22075 10.316H12.0593C13.4611 8.98944 15.3185 8.25141 17.2484 8.2541H5.22075ZM1.09698 11.6906H10.9102C10.5005 12.3201 10.1816 13.0143 9.9727 13.7524H1.09698C0.823559 13.7524 0.561335 13.6438 0.367996 13.4505C0.174657 13.2572 0.06604 12.9949 0.06604 12.7215C0.06604 12.4481 0.174657 12.1859 0.367996 11.9925C0.561335 11.7992 0.823559 11.6906 1.09698 11.6906ZM5.22075 15.127H9.7184C9.65682 15.8155 9.68873 16.5091 9.81325 17.1889H5.22075C4.94733 17.1889 4.6851 17.0803 4.49176 16.887C4.29842 16.6936 4.18981 16.4314 4.18981 16.158C4.18981 15.8846 4.29842 15.6223 4.49176 15.429C4.6851 15.2357 4.94733 15.127 5.22075 15.127ZM23.434 15.8143C23.434 17.4549 22.7823 19.0282 21.6223 20.1882C20.4623 21.3483 18.8889 22 17.2484 22C15.6079 22 14.0345 21.3483 12.8745 20.1882C11.7145 19.0282 11.0628 17.4549 11.0628 15.8143C11.0628 14.1738 11.7145 12.6005 12.8745 11.4404C14.0345 10.2804 15.6079 9.62868 17.2484 9.62868C18.8889 9.62868 20.4623 10.2804 21.6223 11.4404C22.7823 12.6005 23.434 14.1738 23.434 15.8143ZM17.9357 13.0652C17.9357 12.8829 17.8633 12.7081 17.7344 12.5792C17.6055 12.4503 17.4307 12.3779 17.2484 12.3779C17.0661 12.3779 16.8913 12.4503 16.7624 12.5792C16.6335 12.7081 16.5611 12.8829 16.5611 13.0652V15.127H14.4992C14.3169 15.127 14.1421 15.1994 14.0132 15.3283C13.8843 15.4572 13.8119 15.6321 13.8119 15.8143C13.8119 15.9966 13.8843 16.1714 14.0132 16.3003C14.1421 16.4292 14.3169 16.5016 14.4992 16.5016H16.5611V18.5635C16.5611 18.7458 16.6335 18.9206 16.7624 19.0495C16.8913 19.1784 17.0661 19.2508 17.2484 19.2508C17.4307 19.2508 17.6055 19.1784 17.7344 19.0495C17.8633 18.9206 17.9357 18.7458 17.9357 18.5635V16.5016H19.9976C20.1799 16.5016 20.3547 16.4292 20.4836 16.3003C20.6125 16.1714 20.6849 15.9966 20.6849 15.8143C20.6849 15.6321 20.6125 15.4572 20.4836 15.3283C20.3547 15.1994 20.1799 15.127 19.9976 15.127H17.9357V13.0652Z" fill="white"/>
</svg>
