<svg width="14" height="17" viewBox="0 0 14 17" fill="none" xmlns="http://www.w3.org/2000/svg">
<path d="M12.1073 6.84969H4.84163V4.42782C4.84163 3.09256 5.92825 2.00594 7.26351 2.00594C8.59877 2.00594 9.68538 3.09256 9.68538 4.42782H11.3C11.3 2.20211 9.48921 0.391357 7.26351 0.391357C5.03781 0.391357 3.22705 2.20211 3.22705 4.42782V6.84969H2.41976C1.99154 6.84969 1.58087 7.0198 1.27808 7.32259C0.975283 7.62539 0.805176 8.03606 0.805176 8.46428V14.9226C0.805176 15.3508 0.975283 15.7615 1.27808 16.0643C1.58087 16.3671 1.99154 16.5372 2.41976 16.5372H12.1073C12.5355 16.5372 12.9461 16.3671 13.2489 16.0643C13.5517 15.7615 13.7218 15.3508 13.7218 14.9226V8.46428C13.7218 8.03606 13.5517 7.62539 13.2489 7.32259C12.9461 7.0198 12.5355 6.84969 12.1073 6.84969ZM5.69817 11.289C5.7974 10.9091 6.03153 10.5783 6.35682 10.3585C6.68212 10.1386 7.07632 10.0446 7.46582 10.0942C7.85531 10.1437 8.21346 10.3334 8.47335 10.6277C8.73324 10.922 8.87712 11.3008 8.87809 11.6934C8.87763 11.9758 8.80276 12.253 8.66103 12.4972C8.51931 12.7414 8.31573 12.9439 8.0708 13.0844V14.9226H6.45622V13.0844C6.15075 12.9094 5.91117 12.6389 5.77423 12.3146C5.6373 11.9903 5.61058 11.63 5.69817 11.289Z" fill="#FDBC17"/>
</svg>
