<svg width="27" height="26" viewBox="0 0 27 26" fill="none" xmlns="http://www.w3.org/2000/svg">
<path d="M26.1091 0L14.64 8.48623L16.7728 3.48505L26.1091 0Z" fill="#E17726"/>
<path d="M0.646438 0.00976562L9.95761 3.48539L11.9828 8.55227L0.646438 0.00976562ZM21.4936 18.0477L26.5626 18.1443L24.791 24.1625L18.6056 22.4595L21.4936 18.0477ZM5.23489 18.0477L8.11223 22.4595L1.93697 24.1627L0.176392 18.1443L5.23489 18.0477Z" fill="#E27625"/>
<path d="M11.7075 7.26186L11.9148 13.9527L5.7157 13.6706L7.4789 11.0105L7.50141 10.9848L11.7075 7.26186ZM14.957 7.18701L19.2272 10.9851L19.2494 11.0107L21.0126 13.6706L14.8151 13.9527L14.957 7.18701ZM8.29363 18.0672L11.6784 20.7045L7.74664 22.6028L8.29363 18.0672ZM18.4355 18.0669L18.9712 22.6028L15.0504 20.7043L18.4355 18.0669Z" fill="#E27625"/>
<path d="M15.1371 20.4561L19.1157 22.3826L15.4147 24.1416L15.4532 22.979L15.1371 20.4561ZM11.5905 20.4568L11.2869 22.9599L11.3118 24.1403L7.60217 22.3826L11.5905 20.4568Z" fill="#D5BFB2"/>
<path d="M10.4416 14.8257L11.4814 17.0108L7.94165 15.9738L10.4416 14.8257ZM16.2868 14.8259L18.7988 15.9738L15.2475 17.0105L16.2868 14.8259Z" fill="#233447"/>
<path d="M8.56423 18.0451L7.99211 22.7476L4.92529 18.1479L8.56423 18.0451ZM18.1646 18.0451L21.8038 18.1479L18.7255 22.7479L18.1646 18.0451ZM21.1024 13.4048L18.4538 16.1039L16.4121 15.1709L15.4343 17.2259L14.7937 13.6919L21.1024 13.4048ZM5.62513 13.4048L11.9349 13.6919L11.294 17.2259L10.3162 15.1711L8.28498 16.1039L5.62513 13.4048Z" fill="#CC6228"/>
<path d="M5.44666 12.8512L8.44281 15.8916L8.54671 18.8932L5.44666 12.8512ZM21.2851 12.8457L18.1795 18.8985L18.2963 15.8916L21.2851 12.8457ZM11.7884 13.0362L11.909 13.7955L12.2071 15.6864L12.0155 21.4939L11.1097 16.8285L11.1095 16.7804L11.7884 13.0362ZM14.9387 13.0258L15.6194 16.7804L15.6191 16.8285L14.7112 21.5057L14.6751 20.3358L14.5335 15.6519L14.9387 13.0258Z" fill="#E27525"/>
<path d="M18.5627 15.7705L18.4614 18.3785L15.3003 20.8413L14.6615 20.3898L15.3775 16.7004L18.5627 15.7705ZM8.17688 15.7708L11.351 16.7007L12.0671 20.3898L11.4282 20.8413L8.26717 18.3783L8.17688 15.7708Z" fill="#F5841F"/>
<path d="M6.99731 21.8066L11.0411 23.7227L11.0241 22.9043L11.3625 22.6075H15.365L15.7154 22.9035L15.6895 23.7211L19.7079 21.8114L17.7526 23.4272L15.3883 25.0512H11.3301L8.96727 23.4204L6.99731 21.8066Z" fill="#C0AC9D"/>
<path d="M14.8473 20.2012L15.4191 20.605L15.7541 23.2782L15.2692 22.8689H11.4609L10.9851 23.2866L11.3094 20.6053L11.8812 20.2012H14.8473Z" fill="#161616"/>
<path d="M25.3519 0.234863L26.7285 4.36479L25.8688 8.54077L26.481 9.01317L25.6526 9.64522L26.2753 10.126L25.4508 10.8769L25.957 11.2435L24.6136 12.8123L19.1039 11.2082L19.0563 11.1826L15.086 7.83334L25.3519 0.234863ZM1.37664 0.234863L11.6428 7.83334L7.67229 11.1826L7.62465 11.2082L2.11495 12.8123L0.771809 11.2435L1.27745 10.8771L0.453297 10.126L1.07488 9.64575L0.233977 9.01186L0.86943 8.5392L0 4.36505L1.37664 0.234863Z" fill="#763E1A"/>
<path d="M18.8344 10.8574L24.6723 12.5573L26.569 18.4025H21.5654L18.1175 18.4459L20.6248 13.5589L18.8344 10.8574ZM7.89427 10.8574L6.10333 13.5589L8.61112 18.4459L5.16507 18.4025H0.170166L2.05637 12.5573L7.89427 10.8574ZM17.0589 3.45703L15.4258 7.86725L15.0792 13.8248L14.9468 15.6921L14.9363 20.4625H11.7923L11.7821 15.701L11.6491 13.8232L11.3024 7.86725L9.66977 3.45703H17.0589Z" fill="#F5841F"/>
</svg>
