<svg width="18" height="18" viewBox="0 0 18 18" fill="none" xmlns="http://www.w3.org/2000/svg">
<path d="M9.20391 16.5341C8.81509 16.5341 8.44219 16.3797 8.16726 16.1047C7.89232 15.8298 7.73786 15.4569 7.73786 15.0681H10.67C10.67 15.4569 10.5155 15.8298 10.2406 16.1047C9.96562 16.3797 9.59273 16.5341 9.20391 16.5341ZM15.0681 14.3351H3.33972V12.869L4.80577 12.136V8.10436C4.76715 7.07015 5.00071 6.04392 5.48308 5.12828C5.72046 4.70846 6.04416 4.34374 6.43282 4.05818C6.82149 3.77262 7.26628 3.57271 7.73786 3.47165V1.87366H10.4105C9.94608 2.39265 9.65787 3.04529 9.58712 3.73811C9.51637 4.43092 9.66671 5.12835 10.0166 5.73049C10.3665 6.33263 10.898 6.80859 11.5349 7.09017C12.1719 7.37175 12.8816 7.44451 13.5625 7.29803C13.5881 7.55972 13.6006 7.83094 13.6006 8.10436V12.136L15.0666 12.869V14.3351H15.0681ZM12.869 6.2718C12.5802 6.27132 12.2944 6.21396 12.0278 6.103C11.7611 5.99204 11.519 5.82966 11.3151 5.62512C11.1113 5.42057 10.9497 5.17788 10.8396 4.91089C10.7295 4.6439 10.6731 4.35785 10.6736 4.06906C10.6741 3.78028 10.7315 3.49442 10.8424 3.2278C10.9534 2.96118 11.1158 2.71902 11.3203 2.51516C11.5248 2.3113 11.7675 2.14972 12.0345 2.03965C12.3015 1.92958 12.5876 1.87318 12.8764 1.87366C13.4596 1.87463 14.0185 2.10725 14.4303 2.52034C14.842 2.93344 15.0727 3.49317 15.0718 4.0764C15.0708 4.65962 14.8382 5.21858 14.4251 5.6303C14.012 6.04202 13.4523 6.27277 12.869 6.2718Z" fill="white"/>
<path d="M12.8692 6.2718C12.5804 6.27132 12.2946 6.21396 12.028 6.103C11.7613 5.99204 11.5192 5.82966 11.3153 5.62512C11.1115 5.42057 10.9499 5.17788 10.8398 4.91089C10.7298 4.6439 10.6733 4.35785 10.6738 4.06906C10.6743 3.78028 10.7317 3.49442 10.8426 3.2278C10.9536 2.96118 11.116 2.71902 11.3205 2.51516C11.5251 2.3113 11.7678 2.14972 12.0347 2.03965C12.3017 1.92958 12.5878 1.87318 12.8766 1.87366C13.4598 1.87463 14.0188 2.10725 14.4305 2.52034C14.8422 2.93344 15.0729 3.49317 15.072 4.0764C15.071 4.65962 14.8384 5.21858 14.4253 5.6303C14.0122 6.04202 13.4525 6.27277 12.8692 6.2718Z" fill="#FF0000"/>
</svg>
