<svg width="26" height="21" viewBox="0 0 26 21" fill="none" xmlns="http://www.w3.org/2000/svg">
<path fill-rule="evenodd" clip-rule="evenodd" d="M16.2713 1.84244C15.2568 1.97805 14.1855 2.17437 12.9999 2.42686C11.8136 2.17501 10.7429 1.97741 9.72842 1.84244C10.668 2.18857 11.6205 2.61865 12.6305 3.09393C12.8565 3.20048 12.9999 3.42779 12.9999 3.67706C12.9999 3.42779 13.1439 3.20048 13.3692 3.09458C14.3792 2.61865 15.3324 2.18857 16.2713 1.8418V1.84244ZM12.9999 18.6865C12.9999 19.1605 12.5052 19.4724 12.0732 19.2774C8.96061 17.8684 6.33688 17.1089 2.81876 17.7508C2.40934 17.8257 2.02189 17.519 2.02189 17.1031V2.12529C1.55694 2.21892 1.0752 2.32547 0.573439 2.44688C0.433834 2.4808 0.309705 2.56071 0.221033 2.67375C0.13236 2.78679 0.0843029 2.92637 0.0845961 3.07004V19.5622C0.0845961 19.971 0.461076 20.2758 0.862095 20.1996C4.87422 19.4343 7.57803 19.3807 11.2731 19.9413C11.4352 20.2599 11.6823 20.5275 11.987 20.7144C12.2918 20.9013 12.6423 21.0003 12.9999 21.0003C13.3574 21.0003 13.7079 20.9013 14.0127 20.7144C14.3175 20.5275 14.5646 20.2599 14.7266 19.9413C18.421 19.3807 21.1261 19.4343 25.1376 20.1996C25.2319 20.2178 25.3289 20.215 25.422 20.1915C25.515 20.1679 25.6017 20.1242 25.6759 20.0633C25.7502 20.0025 25.8101 19.926 25.8514 19.8394C25.8927 19.7528 25.9145 19.6582 25.9151 19.5622V3.07069C25.9156 2.92691 25.8676 2.78717 25.7789 2.674C25.6902 2.56083 25.566 2.48083 25.4263 2.44688C24.9456 2.3304 24.4627 2.22319 23.9778 2.12529V17.1031C23.9778 17.519 23.5904 17.8257 23.181 17.7508C19.6628 17.1089 17.0391 17.8684 13.9272 19.2774C13.4945 19.4724 12.9999 19.1612 12.9999 18.6865Z" fill="white"/>
<path fill-rule="evenodd" clip-rule="evenodd" d="M2.66763 1.97262V17.1035L2.67215 17.108C2.67642 17.1115 2.68142 17.114 2.68678 17.1154C2.69213 17.1167 2.69772 17.1168 2.70314 17.1158C6.40337 16.4397 9.16917 17.254 12.3392 18.6882C12.3408 18.6891 12.3426 18.6898 12.3444 18.6901H12.345C12.3476 18.6898 12.35 18.6889 12.3521 18.6876C12.3528 18.6872 12.3535 18.6867 12.3541 18.6863V3.67743C8.92055 2.06044 6.32135 1.05886 2.66763 1.97262ZM2.33441 0.725002C6.46342 -0.314031 9.42489 0.870945 12.9056 2.50989C13.1269 2.61422 13.3139 2.77931 13.445 2.98592C13.576 3.19253 13.6456 3.43213 13.6456 3.67679V18.6869C13.6456 19.6413 12.6563 20.2497 11.8071 19.8661C8.75265 18.4835 6.27034 17.7777 2.93433 18.3866C2.15101 18.5287 1.3761 17.9443 1.3761 17.1028V1.96422C1.3761 1.39272 1.75645 0.870299 2.33441 0.724356V0.725002Z" fill="white"/>
<path fill-rule="evenodd" clip-rule="evenodd" d="M23.3321 1.97262V17.1035C23.3271 17.1091 23.3206 17.1131 23.3134 17.1151C23.3081 17.1163 23.3025 17.1163 23.2972 17.1151C19.5957 16.4397 16.8306 17.254 13.6605 18.6888C13.6589 18.6895 13.6571 18.69 13.6553 18.6901H13.6547C13.6522 18.6898 13.6497 18.6889 13.6476 18.6876L13.6457 18.6863V3.67679C17.0792 2.05979 19.6784 1.05886 23.3321 1.97262ZM23.6653 0.725002C19.5363 -0.314031 16.5748 0.870945 13.0942 2.50989C12.8729 2.61439 12.6858 2.77962 12.5548 2.98632C12.4238 3.19303 12.3542 3.4327 12.3541 3.67743V18.6869C12.3541 19.6413 13.3434 20.2497 14.1926 19.8661C17.2471 18.4835 19.73 17.7777 23.0654 18.3866C23.8487 18.5287 24.6236 17.9443 24.6236 17.1028V1.96422C24.6236 1.39272 24.2433 0.870299 23.6653 0.724356V0.725002ZM4.61143 13.8973C6.98138 13.8727 8.30325 14.1117 10.8185 15.1391L11.3067 13.9431C8.64163 12.855 7.14928 12.5793 4.59851 12.6058L4.61143 13.8973ZM4.61143 11.3142C6.98138 11.2897 8.30325 11.5286 10.8185 12.556L11.3067 11.3601C8.64163 10.272 7.14928 9.99623 4.59851 10.0227L4.61143 11.3142ZM4.61143 8.73118C6.98138 8.70664 8.30325 8.94557 10.8185 9.97298L11.3067 8.77702C8.64163 7.68891 7.14928 7.41317 4.59851 7.43965L4.61143 8.73118ZM6.21938 3.56313V5.50042H4.92785V3.56313H6.21938ZM8.47955 4.20889V6.14618H7.18802V4.20889H8.47955ZM10.7397 4.85466V6.79195H9.44819V4.85466H10.7397Z" fill="white"/>
<path fill-rule="evenodd" clip-rule="evenodd" d="M21.3883 13.8971C19.0183 13.8726 17.6964 14.1115 15.1812 15.1389L14.693 13.943C17.3581 12.8549 18.8504 12.5791 21.4012 12.6056L21.3883 13.8971ZM21.3883 11.3141C19.0183 11.2895 17.6964 11.5285 15.1812 12.5559L14.693 11.3599C17.3581 10.2718 18.8504 9.99608 21.4012 10.0226L21.3883 11.3141ZM21.3883 8.73103C19.0183 8.70649 17.6964 8.94543 15.1812 9.97284L14.693 8.77688C17.3581 7.68877 18.8504 7.41303 21.4012 7.43951L21.3883 8.73103ZM19.7803 3.56299V5.50028H21.0718V3.56299H19.7803ZM17.5201 4.20875V6.14604H18.8117V4.20875H17.5201ZM15.26 4.85451V6.7918H16.5515V4.85451H15.26Z" fill="white"/>
</svg>
