<svg width="14" height="14" viewBox="0 0 14 14" fill="none" xmlns="http://www.w3.org/2000/svg">
<path d="M13.4166 5.83265C13.5713 5.83265 13.7197 5.77119 13.8291 5.66178C13.9385 5.55238 14 5.40399 14 5.24927V0.583382C14 0.428659 13.9385 0.280274 13.8291 0.170869C13.7197 0.0614634 13.5713 0 13.4166 0H8.74956C8.59484 0 8.44645 0.0614634 8.33705 0.170869C8.22764 0.280274 8.16618 0.428659 8.16618 0.583382V5.24927C8.16618 5.40399 8.22764 5.55238 8.33705 5.66178C8.44645 5.77119 8.59484 5.83265 8.74956 5.83265H13.4166ZM5.24927 5.83265C5.40399 5.83265 5.55238 5.77119 5.66178 5.66178C5.77119 5.55238 5.83265 5.40399 5.83265 5.24927V0.583382C5.83265 0.428659 5.77119 0.280274 5.66178 0.170869C5.55238 0.0614634 5.40399 0 5.24927 0H0.583383C0.42866 0 0.280274 0.0614634 0.170869 0.170869C0.0614634 0.280274 0 0.428659 0 0.583382V5.24927C0 5.40399 0.0614634 5.55238 0.170869 5.66178C0.280274 5.77119 0.42866 5.83265 0.583383 5.83265H5.24927ZM13.4166 14C13.5713 14 13.7197 13.9385 13.8291 13.8291C13.9385 13.7197 14 13.5713 14 13.4166V8.74956C14 8.59484 13.9385 8.44645 13.8291 8.33705C13.7197 8.22764 13.5713 8.16618 13.4166 8.16618H8.74956C8.59484 8.16618 8.44645 8.22764 8.33705 8.33705C8.22764 8.44645 8.16618 8.59484 8.16618 8.74956V13.4166C8.16618 13.5713 8.22764 13.7197 8.33705 13.8291C8.44645 13.9385 8.59484 14 8.74956 14H13.4166ZM5.24927 14C5.40399 14 5.55238 13.9385 5.66178 13.8291C5.77119 13.7197 5.83265 13.5713 5.83265 13.4166V8.74956C5.83265 8.59484 5.77119 8.44645 5.66178 8.33705C5.55238 8.22764 5.40399 8.16618 5.24927 8.16618H0.583383C0.42866 8.16618 0.280274 8.22764 0.170869 8.33705C0.0614634 8.44645 0 8.59484 0 8.74956V13.4166C0 13.5713 0.0614634 13.7197 0.170869 13.8291C0.280274 13.9385 0.42866 14 0.583383 14H5.24927Z" fill="white"/>
</svg>
