<svg width="30" height="30" viewBox="0 0 30 30" fill="none" xmlns="http://www.w3.org/2000/svg">
<path fill-rule="evenodd" clip-rule="evenodd" d="M23.7326 17.4844C24.5626 16.1821 25.0025 14.6694 25.0001 13.125C25.0001 8.63751 21.3626 5.00001 16.8751 5.00001C15.2707 5.00001 13.7751 5.46501 12.5157 6.26688C11.6776 6.31389 10.848 6.46034 10.0444 6.70313C10.9202 5.76948 11.9783 5.02561 13.1532 4.51763C14.3282 4.00965 15.595 3.74838 16.8751 3.75001C22.0526 3.75001 26.2501 7.94751 26.2501 13.125C26.2516 14.4051 25.9903 15.6718 25.4823 16.8468C24.9744 18.0217 24.2305 19.0799 23.2969 19.9556C23.5351 19.1663 23.6844 18.3388 23.7326 17.4844Z" fill="white"/>
<path fill-rule="evenodd" clip-rule="evenodd" d="M24.9582 17.8769C24.5056 18.645 23.9463 19.3449 23.2969 19.9556C23.5351 19.1663 23.6844 18.3388 23.7326 17.4844C24.5626 16.1821 25.0025 14.6694 25.0001 13.125C25.0001 8.63751 21.3626 5.00001 16.8751 5.00001C15.2707 5.00001 13.7751 5.46501 12.5157 6.26689C11.6776 6.3139 10.848 6.46034 10.0444 6.70314C10.6552 6.05378 11.3551 5.49445 12.1232 5.04189C13.5629 4.19354 15.204 3.74738 16.8751 3.75001C22.0526 3.75001 26.2501 7.94751 26.2501 13.125C26.253 14.7961 25.8068 16.4373 24.9582 17.8769Z" fill="white"/>
<path fill-rule="evenodd" clip-rule="evenodd" d="M22.5 16.875C22.5 22.0525 18.3025 26.25 13.125 26.25C7.9475 26.25 3.75 22.0525 3.75 16.875C3.75 11.6975 7.9475 7.5 13.125 7.5C18.3025 7.5 22.5 11.6975 22.5 16.875ZM12.5 13.75C12.1685 13.75 11.8505 13.8817 11.6161 14.1161C11.3817 14.3505 11.25 14.6685 11.25 15C11.25 15.3315 11.3817 15.6495 11.6161 15.8839C11.8505 16.1183 12.1685 16.25 12.5 16.25V13.75ZM13.75 12.5V11.875H12.5V12.5C11.837 12.5 11.2011 12.7634 10.7322 13.2322C10.2634 13.7011 10 14.337 10 15C10 15.663 10.2634 16.2989 10.7322 16.7678C11.2011 17.2366 11.837 17.5 12.5 17.5V20C11.9563 20 11.4931 19.6531 11.3206 19.1669C11.295 19.0873 11.2537 19.0137 11.1992 18.9504C11.1447 18.8871 11.078 18.8353 11.0031 18.7982C10.9282 18.7611 10.8467 18.7394 10.7632 18.7344C10.6798 18.7294 10.5962 18.7411 10.5174 18.769C10.4387 18.7968 10.3662 18.8402 10.3045 18.8965C10.2427 18.9528 10.1929 19.0209 10.158 19.0968C10.123 19.1727 10.1036 19.2549 10.101 19.3384C10.0983 19.4219 10.1124 19.5052 10.1425 19.5831C10.3149 20.0706 10.6342 20.4927 11.0564 20.7912C11.4786 21.0897 11.9829 21.25 12.5 21.25V21.875H13.75V21.25C14.413 21.25 15.0489 20.9866 15.5178 20.5178C15.9866 20.0489 16.25 19.413 16.25 18.75C16.25 18.087 15.9866 17.4511 15.5178 16.9822C15.0489 16.5134 14.413 16.25 13.75 16.25V13.75C14.2937 13.75 14.7569 14.0969 14.9294 14.5831C14.955 14.6627 14.9963 14.7363 15.0508 14.7996C15.1053 14.8629 15.172 14.9147 15.2469 14.9518C15.3218 14.9889 15.4033 15.0106 15.4868 15.0156C15.5702 15.0206 15.6538 15.0089 15.7326 14.981C15.8113 14.9532 15.8838 14.9098 15.9455 14.8535C16.0073 14.7972 16.0571 14.7291 16.092 14.6532C16.127 14.5773 16.1464 14.4951 16.149 14.4116C16.1517 14.3281 16.1376 14.2448 16.1075 14.1669C15.9351 13.6794 15.6158 13.2573 15.1936 12.9588C14.7714 12.6603 14.2671 12.5 13.75 12.5ZM13.75 17.5V20C14.0815 20 14.3995 19.8683 14.6339 19.6339C14.8683 19.3995 15 19.0815 15 18.75C15 18.4185 14.8683 18.1005 14.6339 17.8661C14.3995 17.6317 14.0815 17.5 13.75 17.5Z" fill="white"/>
</svg>
